<?xml version="1.0" standalone="no"?>
<!DOCTYPE svg PUBLIC "-//W3C//DTD SVG 1.1//EN" "http://www.w3.org/Graphics/SVG/1.1/DTD/svg11.dtd" >
<svg xmlns="http://www.w3.org/2000/svg">
<metadata>Generated by IcoMoon</metadata>
<defs>
<font id="fighticons" horiz-adv-x="1024">
<font-face units-per-em="1024" ascent="960" descent="-64" />
<missing-glyph horiz-adv-x="1024" />
<glyph unicode="&#x20;" horiz-adv-x="512" d="" />
<glyph unicode="&#xe600;" glyph-name="back" d="M512.433 755.429c-157.667 0-287.658-118.418-305.933-271.163h-24.1v44.641l-140.444-81.086 140.444-81.087v42.865h24.178c18.583-152.412 148.425-270.471 305.854-270.471 170.187 0 308.149 137.964 308.149 308.151s-137.962 308.149-308.148 308.149zM654.902 304.809c-38.055-38.055-88.652-59.013-142.469-59.013s-104.415 20.958-142.47 59.013c-29.015 29.015-48.078 65.325-55.503 104.791h217.807v74.667h-217.936c7.332 39.733 26.447 76.298 55.632 105.483 38.055 38.055 88.652 59.013 142.47 59.013s104.415-20.958 142.469-59.013c38.055-38.054 59.013-88.652 59.013-142.47s-20.958-104.415-59.013-142.47z" />
<glyph unicode="&#xe601;" glyph-name="delta" d="M1014.93 3.2l-257.369 257.369c39.527 51.81 63.021 116.511 63.021 186.71 0 72.462-25.022 139.072-66.882 191.687l15.341 15.364 31.538-31.537 41.971 156.644-156.646-41.973 30.323-30.322-15.742-15.767c-52.033 40.151-117.245 64.053-188.052 64.053-170.187 0-308.15-137.964-308.15-308.15 0-70.989 24.023-136.354 64.362-188.454l-255.204-255.623h1001.49zM513.826 398.709l115.539-115.538c-33.903-24.271-74.406-37.376-116.933-37.376-41.802 0-81.65 12.657-115.197 36.138l116.591 116.777zM512.433 139.129c73.076 0 140.197 25.452 193.019 67.957l129.218-129.219h-641.174l127.631 127.836c52.557-41.678 119.022-66.574 191.307-66.574zM713.916 447.279c0-39.774-11.447-77.789-32.783-110.282l-114.551 114.551 111.011 111.188c23.598-33.6 36.323-73.548 36.323-115.458zM310.949 447.279c0 53.819 20.958 104.415 59.013 142.47s88.652 59.013 142.47 59.013c40.388 0 78.954-11.815 111.773-33.792l-279.28-279.739c-22.095 32.879-33.977 71.546-33.977 112.047z" />
<glyph unicode="&#xe602;" glyph-name="down" d="M820.582 447.279c0 170.187-137.963 308.15-308.149 308.15s-308.15-137.964-308.15-308.15c0-157.401 118.016-287.222 270.384-305.844v-21.968h-44.819l81.086-140.444 81.086 140.444h-42.686v21.869c152.786 18.237 271.249 148.245 271.249 305.943zM369.963 304.809c-38.055 38.055-59.013 88.652-59.013 142.47s20.958 104.415 59.013 142.47c38.055 38.055 88.652 59.013 142.47 59.013s104.415-20.958 142.469-59.013c38.055-38.054 59.013-88.652 59.013-142.47s-20.958-104.416-59.013-142.47c-29.205-29.206-65.803-48.327-105.569-55.648v220.173h-74.667v-220.013c-39.433 7.438-75.711 26.494-104.704 55.488z" />
<glyph unicode="&#xe603;" glyph-name="down-back" d="M512.433 755.429c-170.187 0-308.15-137.964-308.15-308.15 0-71.438 24.317-137.191 65.115-189.453l-16.542-16.542-31.566 31.567-41.972-156.646 156.645 41.973-30.31 30.308 16.441 16.441c52.402-41.215 118.5-65.799 190.34-65.799 170.187 0 308.149 137.964 308.149 308.151s-137.963 308.15-308.149 308.15zM654.902 304.809c-38.055-38.055-88.652-59.013-142.469-59.013-41.346 0-80.783 12.382-114.1 35.372l154.713 154.714-52.798 52.797-154.567-154.567c-22.578 33.12-34.732 72.208-34.732 113.17 0 53.819 20.958 104.415 59.013 142.47s88.652 59.013 142.47 59.013 104.415-20.958 142.469-59.013c38.055-38.054 59.013-88.652 59.013-142.47 0.001-53.82-20.957-104.416-59.012-142.471z" />
<glyph unicode="&#xe604;" glyph-name="down-fwd" d="M685.904 158.178l156.646-41.973-41.973 156.645-30.308-30.31-15.011 15.011c40.926 52.305 65.325 118.164 65.325 189.727 0 170.187-137.963 308.15-308.149 308.15s-308.15-137.963-308.15-308.149c0-170.188 137.964-308.151 308.15-308.151 71.715 0 137.708 24.501 190.067 65.585l14.971-14.971-31.567-31.564zM512.433 245.795c-53.819 0-104.415 20.958-142.47 59.013s-59.013 88.652-59.013 142.47c0 53.819 20.958 104.415 59.013 142.47s88.652 59.013 142.47 59.013 104.415-20.958 142.469-59.013c38.055-38.054 59.013-88.652 59.013-142.47 0-41.081-12.224-80.276-34.929-113.457l-156.112 156.112-52.797-52.798 156.167-156.167c-33.257-22.862-72.586-35.173-113.812-35.173z" />
<glyph unicode="&#xe605;" glyph-name="dp" d="M839.467 75.733h-257.958l408.955 408.533h-172.098c-18.275 152.745-148.266 271.163-305.932 271.163-170.187 0-308.15-137.964-308.15-308.15 0-170.188 137.964-308.151 308.15-308.151 9.504 0 18.899 0.454 28.183 1.296l-139.502-139.357h438.352v-44.998l140.444 81.087-140.444 81.087v-42.509zM369.963 304.809c-38.055 38.055-59.013 88.652-59.013 142.47s20.958 104.415 59.013 142.47c38.055 38.055 88.652 59.013 142.47 59.013s104.415-20.958 142.469-59.013c29.185-29.184 48.299-65.749 55.631-105.483h-219.867v-74.667h219.739c-7.425-39.467-26.487-75.776-55.503-104.791-38.055-38.055-88.652-59.013-142.469-59.013s-104.415 20.958-142.47 59.013z" />
<glyph unicode="&#xe606;" glyph-name="dpb" d="M820.582 447.279c0 170.187-137.963 308.15-308.149 308.15-157.667 0-287.658-118.418-305.933-271.163h-172.577l408.955-408.533h-258.345v42.509l-140.444-81.087 140.444-81.087v44.998h438.737l-139.549 139.404c9.455-0.874 19.027-1.343 28.711-1.343 170.187 0.001 308.149 137.964 308.149 308.151zM369.963 589.749c38.055 38.055 88.652 59.013 142.47 59.013s104.415-20.958 142.469-59.013c38.055-38.054 59.013-88.652 59.013-142.47s-20.958-104.416-59.013-142.47-88.652-59.013-142.469-59.013-104.415 20.958-142.47 59.013c-29.015 29.015-48.078 65.325-55.503 104.791h218.874v74.667h-219.003c7.332 39.733 26.447 76.298 55.632 105.483z" />
<glyph unicode="&#xe607;" glyph-name="punch" d="M681.104 427.007l-52.032 62.676 150.183 163.191 72.135-88.691zM612.516 495.596l-92.239 42.571 156.096 210.493 92.239-87.508zM562.85 851.541l102.88-89.874-108.793-139.539-1.182 73.317-68.588 37.842zM470.611 741.564l-117.072 52.032 99.334 128.897 91.055-62.675zM543.929 690.714l-3.548-79.229-127.714-10.644-40.206 48.484 20.104-53.213-55.579-18.921 92.237-26.016 139.54-251.883-31.929-34.292 27.199-8.28-22.468-283.809h-206.946l35.477 293.27-197.484 290.315 154.912 229.708zM791.080 489.683l-114.707-78.048-63.857 73.317-106.429 43.755-46.119-1.182 130.080-227.047 28.381-40.207-34.294-7.097-20.103-280.262h128.897l-7.095 247.151 91.647 112.933zM394.928 584.286l13.008 5.913 40.206-4.731 85.143 18.92-36.659-57.944z" />
<glyph unicode="&#xe608;" glyph-name="kick" d="M450.367 284.874l-72.772 22.055-65.044 295.991 38.092 196.906 99.725 122.072h123.266l99.725-121.898 38.092-196.321-65.044-296.542-72.772-22.262zM467.725-24.707l-71.637 52.96-27.36 84.676 8.493 124.62 90.504 11.605h88.549l90.501-11.372 8.497-124.521-27.362-85.069-71.636-52.898z" />
<glyph unicode="&#xe609;" glyph-name="fwd" d="M979.91 447.822l-140.444 81.086v-42.508h-21.346c-19.222 151.715-148.754 269.029-305.689 269.029-170.187 0-308.15-137.964-308.15-308.15 0-170.188 137.964-308.151 308.15-308.151 158.162 0 288.469 119.165 306.096 272.605h20.939v-44.998l140.444 81.088zM654.902 304.809c-38.055-38.055-88.652-59.013-142.469-59.013s-104.415 20.958-142.47 59.013c-38.055 38.055-59.013 88.652-59.013 142.47s20.958 104.415 59.013 142.47c38.055 38.055 88.652 59.013 142.47 59.013s104.415-20.958 142.469-59.013c28.662-28.662 47.62-64.441 55.235-103.349h-220.538v-74.667h221.201c-7.132-40.291-26.361-77.388-55.899-106.925z" />
<glyph unicode="&#xe60a;" glyph-name="hcb" d="M818.365 484.267c-18.275 152.745-148.266 271.163-305.932 271.163-170.187 0-308.15-137.964-308.15-308.15 0-170.188 137.964-308.151 308.15-308.151 157.429 0 287.269 118.061 305.853 270.471h63.626c-3.703-37.221-12.925-73.427-27.507-107.903-18.838-44.538-45.817-84.546-80.186-118.913-34.369-34.371-74.378-61.348-118.913-80.186-46.080-19.49-95.060-29.373-145.582-29.373s-99.502 9.883-145.582 29.373c-44.535 18.837-84.544 45.815-118.914 80.186-34.369 34.369-61.347 74.378-80.185 118.912-6.622 15.659-12.17 31.78-16.583 48.171h41.403l-81.086 140.444-81.086-140.443h43.938c21.155-95.351 73.501-181.996 148.699-245.521 39.626-33.474 84.253-59.596 132.643-77.639 50.090-18.678 102.829-28.148 156.753-28.148 116.869 0 227.529 44.688 311.594 125.83 83.845 80.932 132.429 189.514 136.801 305.743l1.356 54.135h-141.109zM654.902 304.809c-38.055-38.055-88.652-59.013-142.469-59.013s-104.415 20.958-142.47 59.013c-38.055 38.055-59.013 88.652-59.013 142.47s20.958 104.415 59.013 142.47c38.055 38.055 88.652 59.013 142.47 59.013s104.415-20.958 142.469-59.013c29.185-29.184 48.299-65.749 55.631-105.483h-220.933v-74.667h220.805c-7.426-39.467-26.487-75.776-55.503-104.791z" />
<glyph unicode="&#xe60b;" glyph-name="hcf" d="M916.087 490.31l-81.087-140.444h38.695c-4.414-16.39-9.962-32.513-16.583-48.17-18.837-44.537-45.815-84.545-80.185-118.913-34.37-34.37-74.379-61.348-118.915-80.186-46.079-19.49-95.059-29.373-145.581-29.373s-99.503 9.883-145.582 29.373c-44.535 18.836-84.543 45.814-118.913 80.186-34.37 34.369-61.348 74.378-80.186 118.913-14.582 34.477-23.804 70.683-27.507 107.903h66.334c18.583-152.412 148.425-270.471 305.854-270.471 170.187 0 308.149 137.964 308.149 308.151s-137.963 308.15-308.149 308.15c-157.667 0-287.658-118.418-305.933-271.163h-142.499v-53.333l0.023-21.333h1.252c9.004-108.438 56.676-209.066 135.563-285.212 84.065-81.142 194.724-125.83 311.594-125.83 53.924 0 106.663 9.47 156.753 28.148 48.39 18.044 93.018 44.165 132.643 77.639 75.199 63.524 127.543 150.169 148.699 245.52h46.646l-81.086 140.444zM369.963 589.749c38.055 38.055 88.652 59.013 142.47 59.013s104.415-20.958 142.469-59.013c38.055-38.054 59.013-88.652 59.013-142.47s-20.958-104.416-59.013-142.47-88.652-59.013-142.469-59.013-104.415 20.958-142.47 59.013c-29.015 29.015-48.078 65.325-55.503 104.791h217.807v74.667h-217.936c7.332 39.733 26.447 76.298 55.632 105.483z" />
<glyph unicode="&#xe60c;" glyph-name="hcfd" d="M902.162 692.763l32.985 32.983-156.645 41.973 41.973-156.645 27.361 27.362c8.468-14.711 15.946-30.035 22.334-45.788 18.172-44.812 27.387-92.178 27.387-140.784 0-48.605-9.215-95.971-27.387-140.784-18.8-46.364-46.447-87.986-82.171-123.711-35.726-35.725-77.348-63.372-123.713-82.173-44.811-18.172-92.178-27.386-140.784-27.386s-95.971 9.214-140.784 27.386c-34.69 14.067-66.813 33.148-95.75 56.849l39.513 39.514c51.684-39.174 116.098-62.43 185.952-62.43 170.187 0 308.149 137.964 308.149 308.151s-137.963 308.15-308.149 308.15-308.149-137.966-308.149-308.153c0-73.421 25.693-140.83 68.557-193.765l-92.581-92.581 53.291-53.247 0.896 0.967c80.782-68.162 182.619-105.453 289.061-105.453 0.011 0 0.016 0 0.027 0 58.26 0 115.061 11.027 168.816 32.826 55.67 22.577 105.615 55.713 148.447 98.545 38.129 38.13 68.725 82.118 90.937 130.745 21.458 46.976 34.544 97.003 38.894 148.692 8.254 98.093-15.999 196.373-68.464 278.755zM310.949 447.279c0 53.819 20.958 104.415 59.013 142.47s88.652 59.013 142.47 59.013 104.415-20.958 142.469-59.013c38.055-38.054 59.013-88.652 59.013-142.47s-20.958-104.416-59.013-142.47-88.652-59.013-142.469-59.013c-39.44 0-77.142 11.268-109.454 32.26l161.191 161.191-52.798 52.798-162.492-162.491c-24.63 34.064-37.932 74.868-37.932 117.725z" />
<glyph unicode="&#xe60d;" glyph-name="qcb" d="M820.582 447.279c0 170.187-137.963 308.15-308.149 308.15s-308.15-137.964-308.15-308.15c0-157.035 117.463-286.628 269.317-305.723v-66.436c-37.123 3.722-73.229 12.933-107.615 27.478-44.535 18.837-84.544 45.815-118.914 80.186-34.369 34.369-61.347 74.378-80.185 118.913-6.618 15.646-12.163 31.77-16.578 48.17h38.689l-81.086 140.444-81.085-140.444h46.643c21.154-95.351 73.5-181.996 148.7-245.521 39.626-33.474 84.254-59.596 132.644-77.639 50.090-18.678 102.829-28.148 156.754-28.148 0.361 0 0.407 0 15.891 0.381l20.807 0.512v141.763c153.301 17.757 272.316 148.001 272.316 306.065zM654.902 304.809c-29.467-29.467-66.457-48.673-106.636-55.845v219.303h-74.667v-218.748c-39.021 7.578-74.905 26.557-103.637 55.29-38.055 38.055-59.013 88.652-59.013 142.47s20.958 104.415 59.013 142.47c38.055 38.055 88.652 59.013 142.47 59.013s104.415-20.958 142.469-59.013c38.055-38.054 59.013-88.652 59.013-142.47s-20.958-104.415-59.013-142.47z" />
<glyph unicode="&#xe60e;" glyph-name="qcf" d="M916.087 490.31l-81.087-140.444h38.689c-4.414-16.4-9.959-32.524-16.577-48.17-18.837-44.537-45.815-84.545-80.186-118.913-34.369-34.37-74.378-61.348-118.914-80.186-35.057-14.828-71.879-24.111-109.747-27.691v66.306c153.301 17.757 272.316 148.001 272.316 306.066 0 170.187-137.963 308.15-308.149 308.15s-308.149-137.965-308.149-308.151c0-157.035 117.463-286.628 269.317-305.723v-142.623h34.834c1.307-0.247 2.644-0.375 3.999-0.375 53.924 0 106.665 9.47 156.754 28.148 48.39 18.044 93.019 44.165 132.644 77.639 75.199 63.525 127.545 150.17 148.699 245.521h46.644l-81.087 140.444zM369.963 304.809c-38.055 38.055-59.013 88.652-59.013 142.47s20.958 104.415 59.013 142.47c38.055 38.055 88.652 59.013 142.47 59.013s104.415-20.958 142.469-59.013c38.055-38.054 59.013-88.652 59.013-142.47s-20.958-104.416-59.013-142.47c-29.467-29.467-66.457-48.673-106.636-55.845v219.303h-74.667v-218.748c-39.021 7.578-74.905 26.557-103.637 55.29z" />
<glyph unicode="&#xe60f;" glyph-name="up" d="M547.2 753.467v23.067h44.819l-81.086 140.444-81.086-140.444h42.686v-23.67c-151.337-19.567-268.251-148.918-268.251-305.583 0-170.188 137.964-308.151 308.15-308.151s308.149 137.964 308.149 308.151c0 158.429-119.567 288.911-273.382 306.187zM654.902 304.809c-38.055-38.055-88.652-59.013-142.469-59.013s-104.415 20.958-142.47 59.013c-38.055 38.055-59.013 88.652-59.013 142.47s20.958 104.415 59.013 142.47c28.47 28.47 63.963 47.37 102.571 55.084v-218.166h74.667v219.126c40.592-7.021 77.974-26.315 107.702-56.044 38.055-38.054 59.013-88.652 59.013-142.47s-20.958-104.415-59.013-142.47z" />
<glyph unicode="&#xe610;" glyph-name="up-back" d="M512.433 755.429c-72.205 0-138.602-24.843-191.131-66.435l-16.907 16.907 31.565 31.566-156.644 41.97 41.973-156.646 30.309 30.311 17.179-17.179c-40.421-52.131-64.495-117.573-64.495-188.644 0-170.188 137.964-308.151 308.15-308.151s308.149 137.964 308.149 308.151c0 170.187-137.963 308.15-308.149 308.15zM654.902 304.809c-38.055-38.055-88.652-59.013-142.469-59.013s-104.415 20.958-142.47 59.013c-38.055 38.055-59.013 88.652-59.013 142.47 0 40.611 11.94 79.386 34.15 112.323l153.893-153.893 52.796 52.799-154.302 154.303c33.493 23.364 73.251 35.953 114.946 35.953 53.819 0 104.415-20.958 142.469-59.013s59.013-88.652 59.013-142.47c0-53.82-20.958-104.416-59.013-142.471z" />
<glyph unicode="&#xe611;" glyph-name="up-fwd" d="M769.013 654.359l31.566-31.565 41.971 156.644-156.646-41.973 30.311-30.309-15.751-15.751c-52.031 40.135-117.236 64.025-188.030 64.025-170.187 0-308.15-137.964-308.15-308.15 0-170.188 137.964-308.151 308.15-308.151s308.149 137.964 308.149 308.151c0 72.482-25.038 139.108-66.918 191.731l15.348 15.349zM713.916 447.279c0-53.819-20.958-104.416-59.013-142.47s-88.652-59.013-142.469-59.013-104.415 20.958-142.47 59.013c-38.055 38.055-59.013 88.652-59.013 142.47s20.958 104.415 59.013 142.47c38.055 38.055 88.652 59.013 142.47 59.013 40.346 0 78.88-11.779 111.679-33.71l-155.291-155.29 52.798-52.797 155.903 155.902c23.651-33.627 36.394-73.628 36.394-115.589z" />
<glyph unicode="&#xe900;" glyph-name="cancel3" d="M768 450.667l128-128v-194q0-34-26-60t-60-26h-596q-34 0-60 26t-26 60v280l128-128 170 172 172-172zM896 724.667v-280l-128 128-170-172-172 172-170-172-128 130v194q0 34 26 60t60 26h596q34 0 60-26t26-60z" />
<glyph unicode="&#xe901;" glyph-name="cancel2" horiz-adv-x="951" d="M250.857 224.571l-146.286-146.286q-5.714-5.143-13.143-5.143-6.857 0-13.143 5.143-5.143 5.714-5.143 13.143t5.143 13.143l146.286 146.286q5.714 5.143 13.143 5.143t13.143-5.143q5.143-5.714 5.143-13.143t-5.143-13.143zM347.429 201.143v-182.857q0-8-5.143-13.143t-13.143-5.143-13.143 5.143-5.143 13.143v182.857q0 8 5.143 13.143t13.143 5.143 13.143-5.143 5.143-13.143zM219.429 329.143q0-8-5.143-13.143t-13.143-5.143h-182.857q-8 0-13.143 5.143t-5.143 13.143 5.143 13.143 13.143 5.143h182.857q8 0 13.143-5.143t5.143-13.143zM941.714 256q0-68.571-48.571-116l-84-83.429q-47.429-47.429-116-47.429-69.143 0-116.571 48.571l-190.857 191.429q-12 12-24 32l136.571 10.286 156-156.571q15.429-15.429 38.857-15.714t38.857 15.143l84 83.429q16 16 16 38.286 0 22.857-16 38.857l-156.571 157.143 10.286 136.571q20-12 32-24l192-192q48-49.143 48-116.571zM589.143 669.714l-136.571-10.286-156 156.571q-16 16-38.857 16-22.286 0-38.857-15.429l-84-83.429q-16-16-16-38.286 0-22.857 16-38.857l156.571-156.571-10.286-137.143q-20 12-32 24l-192 192q-48 49.143-48 116.571 0 68.571 48.571 116l84 83.429q47.429 47.429 116 47.429 69.143 0 116.571-48.571l190.857-191.429q12-12 24-32zM950.857 621.714q0-8-5.143-13.143t-13.143-5.143h-182.857q-8 0-13.143 5.143t-5.143 13.143 5.143 13.143 13.143 5.143h182.857q8 0 13.143-5.143t5.143-13.143zM640 932.571v-182.857q0-8-5.143-13.143t-13.143-5.143-13.143 5.143-5.143 13.143v182.857q0 8 5.143 13.143t13.143 5.143 13.143-5.143 5.143-13.143zM872.571 846.286l-146.286-146.286q-6.286-5.143-13.143-5.143t-13.143 5.143q-5.143 5.714-5.143 13.143t5.143 13.143l146.286 146.286q5.714 5.143 13.143 5.143t13.143-5.143q5.143-5.714 5.143-13.143t-5.143-13.143z" />
<glyph unicode="&#xe902;" glyph-name="cancel" d="M848 96h-96c-8.832 0-16 7.168-16 16s7.168 16 16 16h80v80c0 8.832 7.168 16 16 16 8.8 0 16-7.168 16-16v-96c0-8.832-7.2-16-16-16zM848 288c-8.832 0-16 7.168-16 16v96c0 8.832 7.168 16 16 16 8.8 0 16-7.168 16-16v-96c0-8.832-7.2-16-16-16zM848 480c-8.832 0-16 7.168-16 16v96c0 8.832 7.168 16 16 16 8.8 0 16-7.168 16-16v-96c0-8.832-7.2-16-16-16zM848 672c-8.832 0-16 7.168-16 16v80h-80c-8.832 0-16 7.168-16 16s7.168 16 16 16h96c8.8 0 16-7.168 16-16v-96c0-8.832-7.2-16-16-16zM656 96h-96c-8.832 0-16 7.168-16 16s7.168 16 16 16h96c8.8 0 16-7.168 16-16s-7.2-16-16-16zM656 768h-96c-8.832 0-16 7.168-16 16s7.168 16 16 16h96c8.8 0 16-7.168 16-16s-7.2-16-16-16zM464 768h-96c-8.832 0-16 7.168-16 16s7.168 16 16 16h96c8.8 0 16-7.168 16-16s-7.2-16-16-16zM272 96h-96c-8.832 0-16 7.168-16 16v96c0 8.832 7.168 16 16 16s16-7.168 16-16v-80h80c8.832 0 16-7.168 16-16s-7.168-16-16-16zM272 768h-80v-80c0-8.832-7.168-16-16-16s-16 7.168-16 16v96c0 8.832 7.168 16 16 16h96c8.832 0 16-7.168 16-16s-7.168-16-16-16zM176 608c8.832 0 16-7.168 16-16v-96c0-8.832-7.168-16-16-16s-16 7.168-16 16v96c0 8.832 7.168 16 16 16zM176 416c8.832 0 16-7.168 16-16v-96c0-8.832-7.168-16-16-16s-16 7.168-16 16v96c0 8.832 7.168 16 16 16zM663.552 328.864l-32.448-32.448c-5.952-5.984-15.616-5.984-21.6 0l-91.84 91.84-91.84-91.84c-5.984-5.984-15.616-5.984-21.6 0l-32.416 32.448c-5.984 5.984-5.984 15.616 0 21.6l91.872 91.84-91.872 91.84c-5.984 5.952-5.984 15.616 0 21.6l32.416 32.416c5.984 5.984 15.616 5.984 21.6 0l91.84-91.84 91.84 91.84c5.984 5.984 15.648 5.984 21.6 0l32.448-32.416c5.952-5.984 5.952-15.648 0-21.6l-91.872-91.84 91.872-91.84c5.952-5.952 5.952-15.616 0-21.6zM368 128h96c8.8 0 16-7.168 16-16s-7.2-16-16-16h-96c-8.832 0-16 7.168-16 16s7.168 16 16 16z" />
<glyph unicode="&#xe903;" glyph-name="plus" d="M992 576h-352v352c0 17.664-14.304 32-32 32h-192c-17.696 0-32-14.336-32-32v-352h-352c-17.696 0-32-14.336-32-32v-192c0-17.696 14.304-32 32-32h352v-352c0-17.696 14.304-32 32-32h192c17.696 0 32 14.304 32 32v352h352c17.696 0 32 14.304 32 32v192c0 17.664-14.304 32-32 32z" />
<glyph unicode="&#xe904;" glyph-name="right" horiz-adv-x="448" d="M128 768l-128-128 192-192-192-192 128-128 320 320-320 320z" />
</font>
</defs>
</svg>
